<svg width="73" height="277" viewBox="0 0 73 277" fill="none" xmlns="http://www.w3.org/2000/svg">
<path d="M30.584 231.296L30.584 267.296L2.07199 267.296L2.07199 276.608L71 276.608L71 267.296L38.84 267.296L38.84 231.296L71 231.296L71 221.984L2.07199 221.984L2.07199 231.296L30.584 231.296ZM36.536 153.375C52.76 153.375 64.568 162.399 64.568 177.375C64.568 192.351 52.76 201.375 36.536 201.375C20.312 201.375 8.50399 192.351 8.50399 177.375C8.50399 162.399 20.312 153.375 36.536 153.375ZM36.536 143.775C21.656 143.775 0.24799 151.647 0.247991 177.375C0.247992 203.103 21.656 210.975 36.536 210.975C51.416 210.975 72.824 203.103 72.824 177.375C72.824 151.647 51.416 143.775 36.536 143.775ZM71 66.944L2.07199 66.944L2.07199 80.192L60.344 99.776L60.344 99.968L2.07199 119.648L2.07199 132.992L71 132.992L71 123.968L30.296 123.968C28.28 123.968 19.544 124.16 13.208 124.16L13.208 123.968L71 104.576L71 95.36L13.112 75.968L13.112 75.776C19.544 75.776 28.28 75.968 30.296 75.968L71 75.968L71 66.944ZM62.744 0.895241L62.744 42.4632L39.704 42.4632L39.704 4.73524L31.448 4.73524L31.448 42.4632L10.328 42.4632L10.328 1.56725L2.07198 1.56725L2.07198 51.7752L71 51.7752L71 0.895241L62.744 0.895241Z" fill="white"/>
</svg>
