<svg width="471" height="88" viewBox="0 0 471 88" fill="none" xmlns="http://www.w3.org/2000/svg">
<rect width="471" height="88" fill="white"/>
<path d="M68.6004 49.448C68.3017 50.088 68.0031 50.536 67.7044 50.792C67.4484 51.048 67.0431 51.176 66.4884 51.176H64.4404L55.5444 27.752H55.1604L55.6724 35.496L55.9924 63.272C55.9924 63.9547 55.8644 64.424 55.6084 64.68C55.3951 64.8933 54.9471 65 54.2644 65H50.7444V21.928C50.7444 21.2453 50.8511 20.7973 51.0644 20.584C51.3204 20.328 51.7897 20.2 52.4724 20.2H56.7604L64.9524 41.064L66.3604 46.376H66.7444L68.2164 41.064L76.2804 21.928C76.5364 21.3307 76.8351 20.904 77.1764 20.648C77.5177 20.3493 78.0084 20.2 78.6484 20.2H82.4884V63.272C82.4884 63.9547 82.3604 64.424 82.1044 64.68C81.8911 64.8933 81.4431 65 80.7604 65H77.3684V35.496L77.9444 27.752H77.5604L68.6004 49.448ZM96.8019 43.624V63.272C96.8019 63.9547 96.6739 64.424 96.4179 64.68C96.2046 64.8933 95.7566 65 95.0739 65H91.6819V26.28C91.6819 24.0613 92.1299 22.504 93.0259 21.608C93.9646 20.6693 95.5432 20.2 97.7619 20.2H106.978C109.197 20.2 110.754 20.6693 111.65 21.608C112.589 22.504 113.058 24.0613 113.058 26.28V63.272C113.058 63.9547 112.93 64.424 112.674 64.68C112.461 64.8933 112.013 65 111.33 65H107.938V27.56C107.938 26.3227 107.767 25.4267 107.426 24.872C107.127 24.3173 106.423 23.9973 105.314 23.912H99.4259C98.2739 23.9973 97.5486 24.3173 97.2499 24.872C96.9512 25.4267 96.8019 26.3227 96.8019 27.56V39.912H105.378V41.896C105.378 42.5787 105.271 43.048 105.058 43.304C104.887 43.5173 104.461 43.624 103.778 43.624H96.8019ZM131.462 65C130.779 65 130.331 64.8933 130.118 64.68C129.947 64.424 129.862 63.9547 129.862 63.272V61.288H135.43C136.753 61.288 137.585 61.0107 137.926 60.456C138.267 59.9013 138.438 58.9627 138.438 57.64V27.56C138.438 26.2373 138.267 25.2987 137.926 24.744C137.585 24.1893 136.753 23.912 135.43 23.912H127.302V65H122.182V21.928C122.182 21.2453 122.289 20.7973 122.502 20.584C122.758 20.328 123.227 20.2 123.91 20.2H137.478C139.697 20.2 141.254 20.6693 142.15 21.608C143.089 22.504 143.558 24.0613 143.558 26.28V58.92C143.558 61.1387 143.089 62.7173 142.15 63.656C141.254 64.552 139.697 65 137.478 65H131.462ZM157.739 43.624V61.288H169.963V63.272C169.963 63.9547 169.835 64.424 169.579 64.68C169.366 64.8933 168.918 65 168.235 65H152.619V21.928C152.619 21.2453 152.726 20.7973 152.939 20.584C153.195 20.328 153.665 20.2 154.347 20.2H169.963V22.184C169.963 22.8667 169.857 23.336 169.643 23.592C169.473 23.8053 169.046 23.912 168.363 23.912H157.739V39.912H168.043V41.896C168.043 42.5787 167.937 43.048 167.723 43.304C167.553 43.5173 167.126 43.624 166.443 43.624H157.739ZM209.578 44.968L208.49 38.632H208.106L207.082 44.968L202.026 63.272C201.856 63.9547 201.621 64.424 201.322 64.68C201.066 64.8933 200.597 65 199.914 65H195.626L187.818 21.928C187.562 20.776 187.989 20.2 189.098 20.2H192.554L197.93 51.432L199.21 59.112H199.594L201.13 51.432L206.122 33.128C206.208 32.9147 206.357 32.7013 206.57 32.488C206.826 32.2747 207.125 32.168 207.466 32.168H210.922L215.466 51.432L217.066 59.112H217.45L218.666 51.432L223.53 21.928C223.658 21.2453 223.872 20.7973 224.17 20.584C224.512 20.328 225.024 20.2 225.706 20.2H228.842L221.162 63.272C220.992 63.9547 220.757 64.424 220.458 64.68C220.202 64.936 219.733 65.064 219.05 65.064H214.506L209.578 44.968ZM240.614 20.2V63.272C240.614 63.9547 240.486 64.424 240.23 64.68C240.017 64.8933 239.569 65 238.886 65H235.494V21.928C235.494 21.2453 235.601 20.7973 235.814 20.584C236.07 20.328 236.54 20.2 237.222 20.2H240.614ZM270.671 20.2V22.184C270.671 22.8667 270.543 23.336 270.287 23.592C270.074 23.8053 269.626 23.912 268.943 23.912H261.263V63.272C261.263 63.9547 261.135 64.424 260.879 64.68C260.666 64.8933 260.218 65 259.535 65H256.143V23.912H246.863V21.928C246.863 21.2453 246.97 20.7973 247.183 20.584C247.439 20.328 247.908 20.2 248.591 20.2H270.671ZM299.463 20.2V63.272C299.463 63.9547 299.335 64.424 299.079 64.68C298.866 64.8933 298.418 65 297.735 65H294.343V21.928C294.343 21.2453 294.45 20.7973 294.663 20.584C294.919 20.328 295.388 20.2 296.071 20.2H299.463ZM281.927 43.624V63.272C281.927 63.9547 281.799 64.424 281.543 64.68C281.33 64.8933 280.882 65 280.199 65H276.807V21.928C276.807 21.2453 276.914 20.7973 277.127 20.584C277.383 20.328 277.852 20.2 278.535 20.2H281.927V39.912H291.783V41.896C291.783 42.5787 291.676 43.048 291.463 43.304C291.292 43.5173 290.866 43.624 290.183 43.624H281.927ZM321.182 65V21.928C321.182 21.2453 321.289 20.7973 321.502 20.584C321.758 20.328 322.227 20.2 322.91 20.2H326.302V61.288H339.806V63.272C339.806 63.9547 339.678 64.424 339.422 64.68C339.209 64.8933 338.761 65 338.078 65H321.182ZM350.986 57.64C350.986 58.9627 351.157 59.9013 351.498 60.456C351.84 61.0107 352.672 61.288 353.994 61.288H359.754C361.077 61.288 361.909 61.0107 362.25 60.456C362.592 59.9013 362.762 58.9627 362.762 57.64V27.56C362.762 26.2373 362.592 25.2987 362.25 24.744C361.909 24.1893 361.077 23.912 359.754 23.912H353.994C352.672 23.912 351.84 24.1893 351.498 24.744C351.157 25.2987 350.986 26.2373 350.986 27.56V57.64ZM345.866 26.28C345.866 24.0613 346.314 22.504 347.21 21.608C348.149 20.6693 349.728 20.2 351.946 20.2H361.802C364.021 20.2 365.578 20.6693 366.474 21.608C367.413 22.504 367.882 24.0613 367.882 26.28V58.92C367.882 61.1387 367.413 62.7173 366.474 63.656C365.578 64.552 364.021 65 361.802 65H351.946C349.728 65 348.149 64.552 347.21 63.656C346.314 62.7173 345.866 61.1387 345.866 58.92V26.28ZM374.37 21.928C374.114 20.776 374.541 20.2 375.65 20.2H379.17L386.018 52.008L386.914 59.112H387.298L388.194 52.008L394.274 21.928C394.445 21.2453 394.68 20.7973 394.978 20.584C395.277 20.328 395.768 20.2 396.45 20.2H399.65L390.434 63.272C390.264 63.9547 390.029 64.424 389.73 64.68C389.474 64.8933 389.005 65 388.322 65H383.586L374.37 21.928ZM411.114 43.624V61.288H423.338V63.272C423.338 63.9547 423.21 64.424 422.954 64.68C422.741 64.8933 422.293 65 421.61 65H405.994V21.928C405.994 21.2453 406.101 20.7973 406.314 20.584C406.57 20.328 407.04 20.2 407.722 20.2H423.338V22.184C423.338 22.8667 423.232 23.336 423.018 23.592C422.848 23.8053 422.421 23.912 421.738 23.912H411.114V39.912H421.418V41.896C421.418 42.5787 421.312 43.048 421.098 43.304C420.928 43.5173 420.501 43.624 419.818 43.624H411.114Z" fill="black"/>
</svg>
