<svg width="1440" height="1024" viewBox="0 0 1440 1024" fill="none" xmlns="http://www.w3.org/2000/svg">
<g clip-path="url(#clip0)">
<rect width="1440" height="1024" fill="white"/>
<path fill-rule="evenodd" clip-rule="evenodd" d="M163.901 0C153.562 5.21359 148 8.24216 148 8.24216V1024H988.199C807.502 765.156 934.237 585.017 1047.56 423.941C1146 284.02 1234.32 158.485 1102.21 8.24216C1099.76 5.45059 1097.28 2.70338 1094.78 0L163.901 0Z" fill="white"/>
<path fill-rule="evenodd" clip-rule="evenodd" d="M1463.2 1023.02C1469.39 1017.79 1472.73 1014.76 1472.73 1014.76L1470.93 -1L966.539 -0.107396C1075.47 258.544 999.71 438.818 931.965 600.014C873.117 740.039 820.319 865.668 899.892 1015.77C901.371 1018.56 902.862 1021.3 904.366 1024L1463.2 1023.02Z" fill="#DCDCDC"/>
<path d="M-603.475 666.77C-603.475 666.77 -426.811 -110.759 102.038 -38.7435C630.888 33.2719 152.94 881.01 1084.22 943.436C2015.5 1005.86 378.705 1648.95 378.705 1648.95L-603.475 666.77Z" fill="#8B8B8B"/>
</g>
<defs>
<clipPath id="clip0">
<rect width="1440" height="1024" fill="white"/>
</clipPath>
</defs>
</svg>
