<svg width="73" height="539" viewBox="0 0 73 539" fill="none" xmlns="http://www.w3.org/2000/svg">
<path d="M22.232 485.4C14.648 485.784 0.247993 488.184 0.247994 512.28C0.247995 528.984 10.808 535.992 21.56 535.992C33.56 535.992 36.728 525.816 37.784 521.304L41.048 507.192C43.736 495.864 46.04 492.504 53.24 492.504C63.128 492.504 64.856 503.832 64.856 510.552C64.856 519.384 61.208 529.56 48.728 529.56L48.728 538.296C55.16 538.296 60.92 537.144 66.2 531.288C68.984 528.216 72.824 523.224 72.824 510.456C72.824 498.648 68.312 483.48 51.992 483.48C41.048 483.48 35.672 490.2 33.56 499.128L29.048 518.808C28.088 522.84 26.168 526.968 20.312 526.968C9.848 526.968 8.21599 517.08 8.21599 511.224C8.21599 503.448 11.576 494.616 22.232 494.136L22.232 485.4ZM36.536 417.625C52.76 417.625 64.568 426.649 64.568 441.625C64.568 456.601 52.76 465.625 36.536 465.625C20.312 465.625 8.50399 456.601 8.50399 441.625C8.50399 426.649 20.312 417.625 36.536 417.625ZM36.536 408.025C21.656 408.025 0.24799 415.897 0.247991 441.625C0.247992 467.353 21.656 475.225 36.536 475.225C51.416 475.225 72.824 467.353 72.824 441.625C72.824 415.897 51.416 408.025 36.536 408.025ZM10.04 387.834L10.04 370.938C10.04 360.57 13.688 356.634 20.12 356.634C28.568 356.634 31.256 362.106 31.256 371.034L31.256 387.834L10.04 387.834ZM71 397.146L71 367.482C71 352.218 61.688 344.058 50.648 344.058C38.84 344.058 35.672 352.026 33.848 356.538C30.296 348.954 23.96 347.322 19.448 347.322C10.04 347.322 2.07199 353.946 2.07199 366.81L2.07199 397.146L71 397.146ZM38.84 387.834L38.84 369.498C38.84 361.914 40.76 353.37 50.456 353.37C58.136 353.37 63.032 358.266 63.032 367.962L63.032 387.834L38.84 387.834ZM41.432 322.459L41.432 299.899C41.432 288.763 48.056 287.611 53.72 287.611C56.312 287.611 66.776 287.323 71 285.979L71 274.555L69.464 274.555C67.832 277.435 66.392 277.915 62.552 278.011L50.072 278.587C40.472 278.971 38.744 282.907 37.112 286.843C34.52 282.427 30.776 277.243 20.6 277.243C6.00798 277.243 2.07198 288.571 2.07198 299.899L2.07199 331.771L71 331.771L71 322.459L41.432 322.459ZM10.04 322.459L10.04 299.227C10.04 294.619 10.904 286.843 21.56 286.843C31.736 286.843 33.464 294.043 33.464 300.859L33.464 322.459L10.04 322.459ZM62.744 211.801L62.744 253.369L39.704 253.369L39.704 215.641L31.448 215.641L31.448 253.369L10.328 253.369L10.328 212.473L2.07198 212.473L2.07198 262.681L71 262.681L71 211.801L62.744 211.801ZM71 107.131L2.07198 107.131L2.07198 120.379L60.344 139.963L60.344 140.155L2.07198 159.835L2.07198 173.179L71 173.179L71 164.155L30.296 164.155C28.28 164.155 19.544 164.347 13.208 164.347L13.208 164.155L71 144.763L71 135.547L13.112 116.155L13.112 115.963C19.544 115.963 28.28 116.155 30.296 116.155L71 116.155L71 107.131ZM2.07197 82.1707L2.07198 91.4827L71 91.4827L71 82.1707L2.07197 82.1707ZM71 0.443993L2.07197 0.443996L2.07197 13.692L60.344 33.276L60.344 33.468L2.07197 53.148L2.07197 66.492L71 66.492L71 57.468L30.296 57.468C28.28 57.468 19.544 57.66 13.208 57.66L13.208 57.468L71 38.076L71 28.86L13.112 9.46799L13.112 9.276C19.544 9.276 28.28 9.46799 30.296 9.46799L71 9.46799L71 0.443993Z" fill="white"/>
</svg>
